<?xml version="1.0" standalone="no"?>
<!DOCTYPE svg PUBLIC "-//W3C//DTD SVG 20010904//EN"
 "http://www.w3.org/TR/2001/REC-SVG-20010904/DTD/svg10.dtd">
<svg version="1.0" xmlns="http://www.w3.org/2000/svg"
 width="1024.000000pt" height="1024.000000pt" viewBox="0 0 1024.000000 1024.000000"
 preserveAspectRatio="xMidYMid meet">

<g transform="translate(0.000000,1024.000000) scale(0.100000,-0.100000)"
fill="#000000" stroke="none">
<path d="M0 5120 l0 -5120 5120 0 5120 0 0 5120 0 5120 -5120 0 -5120 0 0
-5120z m4011 2873 c6 -17 9 -427 6 -1212 -3 -1062 -5 -1195 -20 -1271 -38
-190 -113 -342 -227 -458 -36 -37 -50 -55 -31 -41 32 23 148 159 158 186 3 7
10 10 16 6 5 -3 7 -1 4 4 -4 6 7 39 24 74 16 35 27 51 23 34 -4 -16 -8 -46 -9
-65 -1 -34 -23 -80 -37 -80 -5 0 -8 -10 -8 -21 0 -12 -12 -41 -27 -66 -31 -49
-141 -173 -155 -173 -4 0 -29 -15 -55 -33 -111 -77 -254 -114 -475 -124 -161
-8 -328 23 -443 81 -16 8 -43 20 -60 27 -16 6 -25 13 -19 16 6 2 32 -5 57 -16
50 -21 164 -47 173 -39 3 3 -16 9 -41 12 -62 10 -136 36 -225 81 -102 51 -151
86 -242 173 -93 89 -123 133 -114 167 8 32 366 395 389 395 10 0 46 -29 81
-64 41 -41 86 -75 132 -97 61 -30 78 -34 149 -34 71 0 86 3 134 31 30 16 67
48 82 70 61 84 59 48 59 1302 0 629 2 1147 5 1152 4 6 140 10 346 10 l339 0
11 -27z m2169 -2 c442 -83 700 -315 765 -687 48 -276 -17 -486 -204 -663 -25
-24 -37 -37 -26 -30 50 34 111 100 156 167 27 41 49 67 49 58 0 -8 -4 -18 -10
-21 -5 -3 -10 -17 -10 -30 0 -13 -6 -30 -12 -37 -7 -7 -14 -24 -16 -38 -1 -14
-9 -30 -17 -36 -8 -6 -15 -15 -15 -20 0 -16 -133 -139 -191 -177 -38 -25 -63
-34 -80 -31 -13 3 0 -7 29 -20 182 -86 328 -237 404 -418 40 -96 58 -186 58
-301 0 -232 -78 -421 -237 -567 -37 -35 -59 -58 -48 -52 63 32 170 160 224
267 22 44 40 76 41 72 0 -5 -5 -18 -12 -30 -6 -12 -12 -33 -13 -47 -3 -46 -5
-50 -18 -50 -7 0 -14 -14 -15 -32 -1 -20 -10 -39 -22 -47 -11 -7 -20 -23 -20
-36 0 -12 -23 -47 -54 -81 -89 -98 -248 -196 -381 -234 -22 -6 -49 -15 -60
-20 -11 -5 -81 -19 -155 -31 -129 -21 -164 -22 -835 -23 l-700 -1 -47 24 c-28
14 -44 29 -41 37 3 8 -6 14 -24 16 l-28 3 -3 1564 c-2 1245 0 1566 10 1573 7
5 335 7 728 5 683 -4 720 -5 830 -26z m-2195 -2618 c-9 -15 -13 -19 -10 -8 4
11 9 34 13 50 5 25 7 27 10 8 2 -12 -4 -34 -13 -50z m-1325 -489 c0 -2 -9 0
-20 6 -11 6 -20 13 -20 16 0 2 9 0 20 -6 11 -6 20 -13 20 -16z m-232 -758 c34
-31 37 -39 37 -86 0 -46 -4 -55 -33 -81 -26 -23 -42 -29 -78 -29 -39 0 -51 5
-80 34 -29 29 -34 41 -34 81 0 40 5 52 34 81 48 48 101 48 154 0z m400 -149
l2 -177 53 27 c45 24 64 28 137 28 108 0 151 -16 216 -77 80 -75 99 -128 99
-268 -1 -100 -4 -121 -24 -162 -35 -71 -95 -133 -159 -165 -101 -50 -233 -34
-296 36 -25 27 -31 27 -34 -5 -1 -14 -4 -30 -8 -35 -3 -5 -45 -9 -95 -9 l-89
0 0 495 0 496 98 -3 97 -3 3 -178z m4622 -3 c0 -170 1 -185 16 -173 10 8 12
15 5 17 -6 2 -11 8 -11 14 0 7 4 7 13 0 9 -8 28 -5 67 8 80 28 181 26 245 -4
59 -27 98 -70 134 -146 23 -49 26 -67 26 -165 0 -94 -3 -117 -23 -160 -37 -81
-71 -123 -135 -165 -68 -46 -64 -55 4 -11 47 29 104 93 132 146 9 17 16 23 17
15 0 -9 -4 -20 -9 -25 -6 -6 -12 -23 -15 -40 -3 -16 -14 -37 -24 -45 -10 -9
-17 -21 -14 -28 6 -20 -77 -91 -115 -98 -43 -8 -127 1 -179 20 l-39 14 65 -5
c36 -3 75 -1 87 4 15 5 0 8 -50 8 -77 0 -123 16 -167 58 l-25 24 -10 -31 -10
-31 -92 -3 -93 -3 0 496 0 495 100 0 100 0 0 -186z m-4603 -96 c-2 -35 -3 -9
-3 57 0 66 1 94 3 63 2 -32 2 -86 0 -120z m2240 150 c10 -17 10 -17 12 -103
l1 -75 75 0 c85 0 84 2 88 -100 l2 -55 -75 -6 -75 -5 60 -3 c33 -2 68 -3 77
-2 15 2 16 -2 9 -21 -6 -18 -19 -24 -56 -30 -77 -11 -85 -24 -87 -147 -2 -99
-3 -96 -8 49 l-6 155 0 -164 1 -164 28 -20 c25 -19 31 -20 73 -9 26 7 49 10
52 8 2 -3 5 -40 6 -82 l1 -77 -30 -9 c-16 -5 -68 -10 -115 -10 -93 -2 -125 9
-172 59 -45 47 -51 76 -56 278 l-4 191 -33 -4 c-18 -2 -42 1 -54 7 -18 10 -21
21 -21 86 l0 75 55 0 55 0 0 83 c0 51 5 88 12 95 17 17 174 16 185 0z m-2610
-67 c1 -27 -4 -44 -17 -56 -11 -10 -18 -21 -15 -25 6 -10 -44 1 -74 16 -23 12
-23 14 -5 19 53 18 76 35 109 84 1 1 1 -17 2 -38z m4455 -129 c110 -48 176
-148 185 -283 5 -63 3 -77 -10 -82 -9 -3 -65 -9 -126 -13 -61 -4 -111 -10
-111 -13 0 -9 209 8 244 19 26 9 27 8 15 -8 -46 -57 -40 -55 -181 -57 -150 -2
-206 -10 -210 -31 -2 -11 -12 -7 -38 15 -19 16 -33 32 -29 35 3 3 48 9 100 14
87 9 89 9 29 10 -36 0 -85 -3 -110 -6 l-44 -7 37 -41 c20 -23 51 -47 67 -54
47 -19 130 -8 203 28 35 18 67 32 70 32 3 0 19 -26 36 -57 l31 -57 -22 -23
c-34 -37 -136 -82 -203 -91 -135 -17 -244 17 -331 103 -73 73 -97 141 -92 260
4 73 9 100 32 143 88 172 282 242 458 164z m-4518 22 l46 -7 0 -357 c0 -328
-2 -363 -20 -421 -38 -124 -124 -189 -261 -197 -46 -3 -79 0 -83 6 -3 5 1 42
10 81 16 69 17 71 48 71 47 0 80 22 93 60 8 25 12 144 12 397 l1 362 33 4 c58
7 74 7 121 1z m1569 -32 c76 -38 127 -91 166 -172 22 -46 26 -69 26 -145 0
-78 -4 -97 -28 -147 -38 -77 -96 -134 -175 -171 -61 -29 -76 -32 -163 -32 -90
0 -99 2 -171 38 -83 41 -131 88 -170 166 -19 39 -23 62 -23 151 0 124 16 168
92 244 81 83 148 107 284 103 85 -2 103 -6 162 -35z m752 -57 l0 -90 -83 -5
c-74 -4 -85 -8 -102 -30 -29 -38 -32 -61 -39 -270 l-6 -195 -97 -3 -98 -3 0
341 0 341 93 -3 92 -3 3 -43 3 -42 32 31 c44 45 103 70 157 67 l45 -3 0 -90z
m812 -20 c19 -55 49 -148 67 -207 l32 -106 69 209 70 210 79 -3 80 -3 65 -202
c36 -111 68 -202 71 -202 3 -1 34 90 71 202 l65 202 90 0 89 0 -3 -25 c-2 -22
-147 -445 -204 -597 l-20 -54 -85 3 -85 3 -71 205 c-67 193 -71 203 -80 170
-15 -60 -119 -354 -129 -367 -7 -9 -38 -13 -90 -13 l-79 0 -14 34 c-24 57
-206 589 -212 619 l-6 28 99 -3 98 -3 33 -100z m849 -30 c-1 -30 -4 -55 -7
-55 -10 0 -39 -70 -39 -94 0 -13 -7 -29 -15 -36 -8 -7 -15 -27 -15 -44 0 -18
-7 -41 -15 -52 -8 -10 -15 -29 -15 -42 0 -13 -4 -21 -9 -18 -11 7 -22 -20 -15
-38 5 -14 -34 -108 -48 -114 -4 -2 -8 -12 -8 -21 0 -10 -9 -30 -21 -45 -22
-27 -53 -33 -120 -19 -28 5 -30 7 -14 14 11 4 41 8 66 8 26 1 51 7 57 14 6 6
56 144 113 305 57 160 103 292 104 292 1 0 1 -25 1 -55z m-1631 -24 c-6 -43
-12 -54 -35 -66 -16 -8 -42 -15 -57 -15 -41 0 -95 -32 -117 -71 -17 -28 -21
-60 -26 -189 l-6 -155 -2 157 c-2 178 9 250 45 286 21 21 31 23 94 21 80 -4
89 2 89 66 0 28 3 36 11 28 7 -7 9 -29 4 -62z m-2288 -273 c-1 -51 -3 -12 -3
87 0 99 2 141 3 93 2 -48 2 -129 0 -180z m3401 66 c14 -47 15 -60 5 -51 -10
10 -43 -44 -43 -70 0 -13 -4 -23 -9 -23 -5 0 -12 -11 -15 -25 -4 -14 -11 -23
-16 -20 -6 4 -10 -6 -10 -21 0 -40 -22 -94 -38 -94 -7 0 -10 -5 -6 -12 4 -6 3
-8 -4 -4 -6 3 -13 -3 -17 -14 -5 -16 -15 -20 -50 -20 -24 0 -51 3 -60 6 -27
11 3 24 56 24 25 0 50 5 55 10 6 6 37 91 70 189 32 99 62 177 65 173 3 -4 11
-26 17 -48z m-2532 -117 c-9 -35 -16 -72 -16 -83 0 -10 -14 -35 -31 -54 -17
-19 -39 -44 -48 -56 -9 -11 -37 -31 -63 -44 -41 -20 -56 -22 -118 -17 -40 3
-103 18 -143 33 l-70 27 -22 -25 c-20 -24 -25 -25 -80 -17 -84 11 -95 29 -18
29 77 0 93 6 93 36 0 29 5 30 33 3 43 -40 79 -53 157 -53 61 -1 86 4 130 25
96 45 180 154 197 254 4 22 9 32 11 22 2 -9 -4 -46 -12 -80z m831 1 c-3 -8 -6
-5 -6 6 -1 11 2 17 5 13 3 -3 4 -12 1 -19z m-21 -45 c-4 -10 -6 -19 -4 -19 2
-1 -5 -11 -16 -23 -10 -11 -16 -27 -13 -36 9 -21 -102 -111 -154 -125 -45 -12
-184 -4 -236 14 -28 9 -17 11 70 11 137 0 197 24 285 111 34 34 62 70 62 80 0
9 3 15 6 11 4 -3 3 -14 0 -24z m-1679 -85 c-2 -13 -4 -5 -4 17 -1 22 1 32 4
23 2 -10 2 -28 0 -40z m4599 -10 c-3 -7 -7 -25 -10 -40 -4 -16 -13 -28 -22
-28 -8 0 -22 -6 -30 -14 -20 -21 -120 -39 -179 -33 -51 5 -185 44 -185 54 0 3
8 2 18 -2 47 -18 117 -24 186 -15 73 9 174 48 197 76 14 17 30 18 25 2z
m-4600 -105 c-8 -108 -27 -184 -53 -210 -70 -70 -142 -95 -227 -79 -39 7 -40
26 -2 26 52 0 126 32 174 75 59 53 93 124 100 212 2 35 7 63 10 63 3 0 2 -39
-2 -87z m5005 59 c-6 -2 -11 -10 -11 -17 0 -33 -98 -63 -115 -35 -3 6 -16 10
-28 11 -21 0 -21 1 -2 9 11 5 34 6 51 3 38 -6 70 9 79 38 6 17 9 18 22 7 10
-8 11 -14 4 -16z m-2220 -46 c-10 -25 -13 -26 -90 -26 -44 0 -83 4 -86 10 -3
5 -20 14 -38 18 -24 7 -15 8 38 6 39 -1 96 3 125 10 30 7 56 12 58 11 1 -1 -2
-14 -7 -29z m-761 4 c-10 -20 -19 -20 -97 -4 -47 9 -21 24 42 24 62 0 65 -1
55 -20z"/>
<path d="M3358 4833 c7 -3 16 -2 19 1 4 3 -2 6 -13 5 -11 0 -14 -3 -6 -6z"/>
<path d="M3308 4823 c6 -2 18 -2 25 0 6 3 1 5 -13 5 -14 0 -19 -2 -12 -5z"/>
<path d="M2938 4813 c12 -2 32 -2 45 0 12 2 2 4 -23 4 -25 0 -35 -2 -22 -4z"/>
<path d="M3218 4813 c12 -2 32 -2 45 0 12 2 2 4 -23 4 -25 0 -35 -2 -22 -4z"/>
<path d="M3063 4803 c20 -2 54 -2 75 0 20 2 3 4 -38 4 -41 0 -58 -2 -37 -4z"/>
<path d="M5327 7423 c-4 -3 -7 -173 -7 -376 l0 -369 273 5 c298 5 349 13 456
67 144 72 218 220 191 380 -29 174 -154 268 -384 291 -107 10 -520 12 -529 2z"/>
<path d="M5632 6141 c174 -3 320 -9 324 -13 4 -4 -98 -5 -227 -1 -197 5 -241
3 -279 -10 -69 -23 -100 -39 -100 -51 -1 -6 -7 3 -15 19 -12 26 -13 -16 -14
-327 l-1 -358 308 0 c401 0 474 15 582 116 72 68 103 137 108 243 3 71 0 96
-19 145 -28 77 -94 147 -173 186 -105 52 -182 60 -514 58 l-297 -2 317 -5z"/>
<path d="M6635 5013 c-27 -15 -88 -42 -135 -60 -47 -18 -79 -32 -73 -33 30 0
263 101 263 115 0 7 1 7 -55 -22z"/>
<path d="M6335 4905 c-28 -8 -39 -13 -25 -13 14 0 43 5 65 13 51 17 25 17 -40
0z"/>
<path d="M6243 4883 c9 -2 23 -2 30 0 6 3 -1 5 -18 5 -16 0 -22 -2 -12 -5z"/>
<path d="M6168 4873 c12 -2 30 -2 40 0 9 3 -1 5 -23 4 -22 0 -30 -2 -17 -4z"/>
<path d="M5043 4863 c203 -2 531 -2 730 0 199 1 34 2 -368 2 -401 0 -564 -1
-362 -2z"/>
<path d="M2923 3693 c-32 -6 -80 -66 -94 -115 -14 -52 -6 -127 18 -176 53
-107 202 -108 262 -2 48 85 12 233 -67 274 -32 17 -88 26 -119 19z m42 -22
c-22 -4 -51 -11 -65 -15 l-25 -7 25 15 c14 9 43 15 65 14 l40 -1 -40 -6z"/>
<path d="M7518 3685 c-46 -26 -71 -79 -76 -164 -3 -66 0 -82 20 -120 52 -97
161 -108 240 -24 103 108 34 308 -110 320 -30 2 -57 -2 -74 -12z"/>
<path d="M6773 3703 c9 -2 25 -2 35 0 9 3 1 5 -18 5 -19 0 -27 -2 -17 -5z"/>
<path d="M6706 3678 c-14 -13 -33 -40 -42 -62 l-15 -39 130 5 c72 3 134 8 137
11 19 18 -48 107 -80 107 -6 0 1 -8 14 -17 56 -38 67 -78 23 -80 -16 -1 -22 1
-15 4 6 2 10 9 6 14 -9 15 -56 10 -76 -7 -22 -21 -118 -32 -118 -15 0 25 31
71 58 85 15 9 22 15 15 16 -7 0 -23 -10 -37 -22z"/>
<path d="M3741 3678 c-57 -29 -78 -59 -92 -128 -15 -71 0 -128 47 -180 63 -69
138 -76 207 -19 67 55 88 127 62 212 -24 80 -66 120 -140 131 -31 5 -50 1 -84
-16z"/>
<path d="M6301 3464 c0 -11 3 -14 6 -6 3 7 2 16 -1 19 -3 4 -6 -2 -5 -13z"/>
</g>
</svg>
