<?xml version="1.0" standalone="no"?>
<!DOCTYPE svg PUBLIC "-//W3C//DTD SVG 20010904//EN"
 "http://www.w3.org/TR/2001/REC-SVG-20010904/DTD/svg10.dtd">
<svg version="1.0" xmlns="http://www.w3.org/2000/svg"
 width="1024.000000pt" height="1024.000000pt" viewBox="0 0 1024.000000 1024.000000"
 preserveAspectRatio="xMidYMid meet">

<g transform="translate(0.000000,1024.000000) scale(0.100000,-0.100000)"
fill="#fff" stroke="none">
<path d="M3323 8013 c-10 -4 -13 -177 -13 -819 l0 -814 355 0 355 0 -1 788
c-1 433 -4 801 -8 817 l-6 30 -335 2 c-184 1 -341 -1 -347 -4z"/>
<path d="M4623 8013 c-10 -4 -13 -177 -13 -819 l0 -814 1032 0 c640 0 1028 4
1023 9 -6 5 -44 23 -85 40 -47 19 -67 31 -52 32 12 1 26 2 31 3 5 0 39 25 75
55 58 49 72 65 77 89 1 4 34 41 74 83 149 156 201 351 161 599 -71 436 -394
680 -956 720 -144 10 -1343 13 -1367 3z m1233 -592 c230 -23 355 -117 384
-291 27 -160 -47 -308 -191 -380 -107 -54 -158 -62 -456 -67 l-273 -5 0 369
c0 203 3 373 7 376 9 10 422 8 529 -2z m837 -830 c-12 -10 -19 -22 -15 -26 4
-5 2 -5 -4 -2 -6 4 -36 -7 -65 -23 -30 -16 -58 -30 -64 -30 -5 0 14 13 42 29
29 16 65 38 80 50 35 25 56 27 26 2z m-173 -91 c-8 -5 -19 -10 -25 -10 -5 0
-3 5 5 10 8 5 20 10 25 10 6 0 3 -5 -5 -10z"/>
<path d="M5333 7407 c-2 -4 -1 -21 2 -38 l7 -31 32 31 33 32 239 -5 c131 -2
264 -7 294 -10 47 -5 51 -4 25 5 -17 6 -126 13 -245 15 -118 2 -253 5 -298 7
-46 1 -86 -1 -89 -6z"/>
<path d="M5995 7370 c-3 -6 1 -7 9 -4 18 7 21 14 7 14 -6 0 -13 -4 -16 -10z"/>
<path d="M6037 7359 c7 -7 15 -10 18 -7 3 3 -2 9 -12 12 -14 6 -15 5 -6 -5z"/>
<path d="M6744 6628 l-19 -23 23 19 c21 18 27 26 19 26 -2 0 -12 -10 -23 -22z"/>
<path d="M2260 3410 c0 -309 -5 -346 -48 -369 -12 -6 -36 -11 -55 -11 l-35 0
-16 -71 c-9 -39 -13 -76 -10 -81 4 -6 36 -9 80 -6 97 6 174 44 218 105 58 83
60 92 64 421 l4 302 -101 0 -101 0 0 -290z"/>
<path d="M2632 3438 l3 -263 90 0 90 0 3 33 c2 17 6 32 9 32 3 0 21 -13 39
-30 95 -83 255 -72 361 24 22 19 42 33 46 30 3 -3 5 1 4 8 -1 7 12 40 29 73
27 55 29 68 29 170 0 82 -5 120 -17 148 l-17 37 -163 0 c-150 -1 -160 -2 -125
-14 21 -8 47 -22 57 -31 60 -55 79 -183 38 -257 -42 -74 -141 -100 -209 -55
-89 59 -104 225 -28 311 16 19 40 37 52 39 12 2 -49 5 -136 6 l-157 1 2 -262z"/>
<path d="M3468 3658 c-20 -37 -23 -58 -23 -148 0 -101 1 -108 34 -168 118
-217 431 -256 601 -76 57 60 84 116 95 193 8 63 -9 166 -36 210 l-19 31 -152
-1 c-84 0 -148 -2 -143 -4 6 -2 22 -6 36 -9 41 -9 88 -64 105 -123 25 -85 3
-157 -63 -212 -69 -57 -144 -50 -207 19 -47 52 -62 109 -47 180 14 69 35 99
91 128 l44 22 -147 0 -147 0 -22 -42z"/>
<path d="M4310 3435 l0 -265 94 0 c76 0 95 3 100 16 3 9 6 91 6 183 0 184 14
258 53 286 14 10 45 15 93 15 55 0 73 4 78 15 5 13 -23 15 -209 15 l-215 0 0
-265z"/>
<path d="M4836 3693 l51 -4 6 -187 c3 -108 10 -202 17 -222 16 -45 56 -89 97
-106 39 -17 172 -18 227 -3 l39 11 -6 69 c-3 38 -8 73 -11 78 -4 6 -21 5 -42
-1 -41 -11 -76 -5 -98 18 -13 13 -16 44 -16 179 l0 164 83 4 c45 1 -26 3 -158
3 -132 0 -217 -1 -189 -3z"/>
<path d="M5422 3528 c33 -95 74 -213 91 -263 l32 -90 82 -3 c76 -3 83 -1 94
20 6 12 40 105 75 207 35 101 65 178 68 170 2 -8 32 -95 66 -194 33 -99 63
-186 65 -192 3 -9 30 -13 89 -13 83 0 84 0 94 28 44 120 172 488 172 495 0 4
-41 6 -91 5 l-91 -3 -41 -127 c-22 -71 -43 -128 -46 -128 -3 0 -24 58 -46 128
l-41 127 -130 3 -129 3 -44 -138 -43 -138 -42 135 -42 135 -101 3 -102 3 61
-173z"/>
<path d="M6467 3653 c-18 -39 -22 -66 -22 -148 0 -86 3 -107 25 -150 33 -67
99 -131 168 -163 51 -24 68 -27 167 -27 122 0 169 15 246 75 l39 31 -30 60
c-17 32 -33 59 -35 59 -3 0 -34 -14 -68 -32 -53 -28 -73 -32 -137 -33 -82 0
-108 12 -149 70 l-21 30 27 6 c16 4 114 12 218 19 105 6 198 17 209 22 16 9
18 18 13 77 -3 37 -13 86 -22 109 l-17 42 -114 0 -114 0 30 -27 c20 -18 32
-39 33 -58 l2 -30 -130 -6 c-71 -3 -132 -4 -134 -2 -9 7 34 86 57 104 l25 19
-122 0 -122 0 -22 -47z"/>
<path d="M6753 3692 c-6 -4 10 -7 35 -8 32 -1 41 1 27 7 -26 10 -47 10 -62 1z"/>
<path d="M7252 3438 l3 -263 89 0 90 0 8 34 9 34 27 -26 c70 -65 185 -81 274
-38 64 30 141 117 169 189 30 78 37 201 15 275 l-17 57 -152 0 c-144 0 -150
-1 -122 -16 45 -23 66 -45 86 -89 36 -78 20 -173 -37 -227 -112 -104 -255 -28
-253 136 1 63 19 131 35 131 5 0 20 8 34 18 13 9 20 17 16 17 -5 0 -18 -7 -28
-17 -11 -10 -18 -12 -18 -4 0 6 15 20 33 31 l32 20 -148 0 -147 0 2 -262z"/>
<path d="M2901 3666 c-18 -10 -20 -14 -8 -19 8 -3 19 -1 25 5 6 6 28 14 49 18
l38 8 -40 0 c-22 1 -51 -5 -64 -12z"/>
<path d="M3753 3673 c-7 -2 -13 -9 -13 -14 0 -6 5 -7 12 -3 7 4 28 11 48 15
l35 7 -35 0 c-19 0 -41 -2 -47 -5z"/>
<path d="M7541 3676 c2 -2 28 -6 57 -10 37 -5 52 -4 47 4 -3 5 -29 10 -57 10
-28 0 -49 -2 -47 -4z"/>
<path d="M3860 3666 c0 -2 7 -7 16 -10 8 -3 12 -2 9 4 -6 10 -25 14 -25 6z"/>
<path d="M5110 3648 c0 -17 3 -19 9 -10 5 8 24 18 42 22 l34 8 -42 1 c-38 1
-43 -2 -43 -21z"/>
<path d="M6694 3648 l-19 -23 23 19 c12 11 22 21 22 23 0 8 -8 2 -26 -19z"/>
<path d="M3704 3638 l-19 -23 23 19 c12 11 22 21 22 23 0 8 -8 2 -26 -19z"/>
<path d="M4581 3647 c-14 -6 -26 -19 -29 -27 -3 -10 0 -9 10 3 7 10 35 22 63
26 43 8 45 9 15 10 -19 0 -46 -5 -59 -12z"/>
<path d="M2865 3630 c-3 -6 1 -7 9 -4 18 7 21 14 7 14 -6 0 -13 -4 -16 -10z"/>
<path d="M6670 3600 c0 -5 5 -10 11 -10 5 0 7 5 4 10 -3 6 -8 10 -11 10 -2 0
-4 -4 -4 -10z"/>
<path d="M5850 3516 c0 -8 4 -17 9 -20 5 -4 7 3 4 14 -6 23 -13 26 -13 6z"/>
<path d="M7068 3443 c7 -3 16 -2 19 1 4 3 -2 6 -13 5 -11 0 -14 -3 -6 -6z"/>
<path d="M6958 3433 c7 -3 16 -2 19 1 4 3 -2 6 -13 5 -11 0 -14 -3 -6 -6z"/>
<path d="M6813 3423 c9 -2 23 -2 30 0 6 3 -1 5 -18 5 -16 0 -22 -2 -12 -5z"/>
<path d="M6670 3416 c0 -2 8 -10 17 -17 9 -8 14 -9 10 -2 -4 7 0 13 10 16 11
3 8 5 -9 6 -16 0 -28 -1 -28 -3z"/>
<path d="M3180 3180 c-9 -6 -10 -10 -3 -10 6 0 15 5 18 10 8 12 4 12 -15 0z"/>
</g>
</svg>
