<?xml version="1.0" standalone="no"?>
<!DOCTYPE svg PUBLIC "-//W3C//DTD SVG 20010904//EN"
 "http://www.w3.org/TR/2001/REC-SVG-20010904/DTD/svg10.dtd">
<svg version="1.0" xmlns="http://www.w3.org/2000/svg"
 width="480.000000pt" height="480.000000pt" viewBox="0 0 480.000000 480.000000"
 preserveAspectRatio="xMidYMid meet">

<g transform="translate(0.000000,480.000000) scale(0.100000,-0.100000)"
fill="#000000" stroke="none">
<path d="M0 2400 l0 -2400 2400 0 2400 0 0 2400 0 2400 -2400 0 -2400 0 0
-2400z m1880 755 c5 -534 4 -607 -11 -667 -30 -122 -79 -181 -197 -236 -52
-25 -67 -27 -182 -27 -117 0 -129 2 -188 29 -35 16 -68 38 -73 48 -7 13 -16
17 -27 13 -9 -3 -13 -3 -10 1 4 4 -10 19 -31 35 -41 29 -91 88 -91 107 0 6 40
53 90 103 l89 92 43 -35 c61 -49 81 -58 132 -58 39 0 52 6 84 34 l37 34 3 554
c1 304 4 559 7 566 3 10 42 12 162 10 l158 -3 5 -600z m1065 580 c138 -39 233
-113 280 -217 21 -46 29 -83 34 -158 3 -54 3 -96 -2 -93 -4 2 -5 -7 -1 -21 15
-62 -47 -162 -133 -213 l-33 -20 39 -21 c54 -31 118 -104 149 -170 23 -48 27
-71 27 -149 0 -50 4 -86 8 -80 5 7 6 4 4 -8 -3 -11 -8 -38 -12 -60 -19 -114
-122 -208 -285 -261 -48 -15 -104 -18 -429 -22 l-373 -4 -29 28 -29 28 0 717
c0 395 3 725 6 734 6 16 35 17 363 12 294 -4 366 -8 416 -22z m-1804 -1806
c12 -12 19 -29 16 -40 -3 -10 -1 -17 4 -13 14 8 11 -33 -3 -48 -10 -10 -12
-50 -8 -163 6 -147 6 -148 10 -50 2 69 5 84 8 50 2 -27 1 -102 -3 -165 -7
-112 -8 -115 -40 -147 -38 -38 -86 -44 -122 -14 -18 15 -22 26 -17 50 4 19 13
31 23 31 43 1 46 11 51 202 l5 183 27 3 27 3 -34 31 c-38 33 -44 61 -18 90 21
24 48 23 74 -3z m179 -4 c0 -14 5 -25 11 -25 7 0 10 -20 7 -55 -2 -46 0 -54
12 -49 66 26 134 10 180 -42 26 -30 30 -42 31 -97 0 -46 3 -57 10 -42 6 14 7
5 3 -30 -10 -92 -66 -141 -144 -129 -25 3 -69 6 -98 5 -61 -2 -90 9 -52 20 21
6 19 7 -12 8 l-38 1 0 230 0 230 45 0 c41 0 45 -2 45 -25z m2171 -27 c0 -39 3
-48 9 -33 6 15 9 9 9 -25 0 -34 -3 -40 -9 -25 -8 18 -9 17 -9 -7 -1 -27 -1
-27 34 -12 80 33 153 5 187 -73 15 -33 18 -57 14 -87 -4 -29 -3 -37 4 -26 12
19 12 7 -1 -50 -20 -88 -88 -126 -173 -97 -27 9 -48 12 -51 6 -11 -17 -70 -10
-88 11 -15 18 -17 47 -17 245 l0 225 45 0 45 0 1 -52z m-1101 -53 c0 -45 0
-45 35 -45 37 0 40 -3 49 -60 6 -34 4 -36 -26 -45 -29 -9 -34 -16 -46 -64 -15
-60 -9 -71 39 -71 24 0 27 -4 32 -47 3 -27 3 -52 0 -57 -3 -4 -27 -6 -54 -4
-88 9 -128 71 -129 201 0 47 -3 57 -17 58 -15 0 -15 2 2 8 18 7 17 8 -7 13
-22 4 -28 1 -32 -19 -5 -16 -14 -23 -30 -23 -55 0 -86 -68 -86 -186 0 -42 -1
-44 -29 -44 -39 0 -49 17 -14 23 20 3 16 4 -14 6 l-43 1 0 155 0 155 45 0 c33
0 45 -4 45 -15 0 -12 6 -11 33 5 46 29 77 27 77 -5 0 -14 5 -25 10 -25 6 0 10
9 10 20 0 15 7 20 25 20 22 0 25 4 25 38 0 21 3 42 7 45 3 4 26 7 50 7 l43 0
0 -45z m-524 -56 c52 -25 80 -67 96 -143 21 -107 -27 -185 -120 -194 -47 -4
-130 14 -118 26 4 3 -11 15 -31 26 -43 24 -83 92 -83 141 0 17 10 51 23 75 40
82 145 112 233 69z m1402 -6 c46 -34 62 -65 65 -122 2 -47 -1 -56 -19 -66 -19
-10 -20 -12 -6 -33 12 -18 12 -25 2 -37 -9 -10 -9 -15 -1 -15 21 0 11 -20 -19
-35 -43 -22 -159 -17 -144 6 3 5 -5 9 -18 9 -25 0 -76 46 -97 87 -15 30 -14
109 3 141 18 34 53 68 86 81 37 16 117 7 148 -16z m-653 -73 c16 -50 32 -87
36 -83 3 5 19 45 34 91 l27 82 38 0 39 0 30 -92 30 -93 14 35 c8 19 23 61 32
93 l16 57 44 0 44 0 -10 -32 c-11 -41 -11 -47 1 -28 18 27 11 -7 -21 -102 -52
-156 -75 -190 -115 -173 -17 7 -17 8 6 15 22 7 21 8 -11 9 -36 1 -37 3 -61 67
l-25 66 -33 -75 c-35 -81 -47 -92 -82 -77 -23 9 -23 9 3 9 29 1 49 18 48 41 0
9 -4 6 -10 -8 -7 -20 -15 -23 -51 -20 l-43 3 -52 153 -52 152 47 0 48 0 29
-90z"/>
<path d="M2528 3430 c-26 -16 -38 -74 -38 -187 l0 -103 26 -6 c15 -4 78 -4
141 -1 195 11 263 58 263 182 0 70 -2 74 -55 100 -33 16 -66 20 -180 22 -86 2
-147 -1 -157 -7z"/>
<path d="M2523 2834 c-8 -4 -14 -29 -15 -67 l-1 -62 -7 50 c-5 35 -7 9 -8 -89
l-2 -139 168 5 c146 4 172 7 209 26 55 28 85 73 91 133 11 117 -34 142 -263
146 -88 1 -166 0 -172 -3z"/>
<path d="M1367 1672 c-23 -26 -32 -78 -17 -97 30 -36 120 3 120 52 -1 49 -11
63 -50 63 -23 0 -43 -7 -53 -18z"/>
<path d="M1357 1489 c7 -7 15 -10 18 -7 3 3 -2 9 -12 12 -14 6 -15 5 -6 -5z"/>
<path d="M3527 1668 c-27 -42 -30 -68 -11 -89 43 -48 118 -1 112 70 -3 34 -5
36 -45 39 -35 3 -44 -1 -56 -20z"/>
<path d="M1810 1692 c-43 -4 -59 -17 -78 -62 -14 -33 -13 -35 13 -57 33 -29
46 -29 84 3 24 20 31 34 31 62 0 49 -8 58 -50 54z"/>
<path d="M3219 1717 c12 -15 12 -17 -2 -11 -8 3 -28 -1 -44 -10 l-28 -15 48
-1 c51 0 62 16 30 41 -16 13 -17 12 -4 -4z"/>
<path d="M3248 1613 c6 -2 18 -2 25 0 6 3 1 5 -13 5 -14 0 -19 -2 -12 -5z"/>
<path d="M3128 1603 c7 -3 16 -2 19 1 4 3 -2 6 -13 5 -11 0 -14 -3 -6 -6z"/>
<path d="M3172 1583 c-12 -2 -20 -9 -17 -14 9 -14 77 -10 105 6 24 14 24 14
-20 13 -25 0 -55 -3 -68 -5z"/>
</g>
</svg>
